PathFileType        4      (X/Y/Z)      C:\Users\pc\Desktop\IMUTRC\Sujet_01\Sujet_01_velo_80.trc         
DataRate	CameraRate	NumFrames	NumMarkers	Units	OrigDataRate	OrigDataStartFrame	OrigNumFrames
60.0	60.0	4	64	mm	60.0	370	984
Frame#	Time	pHipOrigin			pRightASI			pLeftASI			pRightCSI			pLeftCSI			pRightIschialTub			pLeftIschialTub			pSacrum			pL5SpinalProcess			pL3SpinalProcess			pT12SpinalProcess			pIJ			pT4SpinalProcess			pT8SpinalProcess			pPX			pC7SpinalProcess			pTopOfHead			pRightAuricularis			pLeftAuricularis			pBackOfHead			pRightAcromion			pLeftAcromion			pRightArmLatEpicondyle			pRightArmMedEpicondyle			pLeftArmLatEpicondyle			pLeftArmMedEpicondyle			pRightUlnarStyloid			pRightRadialStyloid			pRightOlecranon			pLeftUlnarStyloid			pLeftRadialStyloid			pLeftOlecranon			pRightTopOfHand			pRightPinky			pRightBallHand			pLeftTopOfHand			pLeftPinky			pLeftBallHand			pRightGreaterTrochanter			pRightKneeLatEpicondyle			pRightKneeMedEpicondyle			pRightPatella			pLeftGreaterTrochanter			pLeftKneeLatEpicondyle			pLeftKneeMedEpicondyle			pLeftPatella			pRightTibialTub			pRightLatMalleolus			pRightMedMalleolus			pLeftTibialTub			pLeftLatMalleolus			pLeftMedMalleolus			pRightHeelFoot			pRightFirstMetatarsal			pRightFifthMetatarsal			pRightPivotFoot			pRightHeelCenter			pRightToe			pLeftHeelFoot			pLeftFirstMetatarsal			pLeftFifthMetatarsal			pLeftPivotFoot			pLeftHeelCenter			pLeftToe			
		X1	Y1	Z1	X2	Y2	Z2	X3	Y3	Z3	X4	Y4	Z4	X5	Y5	Z5	X6	Y6	Z6	X7	Y7	Z7	X8	Y8	Z8	X9	Y9	Z9	X10	Y10	Z10	X11	Y11	Z11	X12	Y12	Z12	X13	Y13	Z13	X14	Y14	Z14	X15	Y15	Z15	X16	Y16	Z16	X17	Y17	Z17	X18	Y18	Z18	X19	Y19	Z19	X20	Y20	Z20	X21	Y21	Z21	X22	Y22	Z22	X23	Y23	Z23	X24	Y24	Z24	X25	Y25	Z25	X26	Y26	Z26	X27	Y27	Z27	X28	Y28	Z28	X29	Y29	Z29	X30	Y30	Z30	X31	Y31	Z31	X32	Y32	Z32	X33	Y33	Z33	X34	Y34	Z34	X35	Y35	Z35	X36	Y36	Z36	X37	Y37	Z37	X38	Y38	Z38	X39	Y39	Z39	X40	Y40	Z40	X41	Y41	Z41	X42	Y42	Z42	X43	Y43	Z43	X44	Y44	Z44	X45	Y45	Z45	X46	Y46	Z46	X47	Y47	Z47	X48	Y48	Z48	X49	Y49	Z49	X50	Y50	Z50	X51	Y51	Z51	X52	Y52	Z52	X53	Y53	Z53	X54	Y54	Z54	X55	Y55	Z55	X56	Y56	Z56	X57	Y57	Z57	X58	Y58	Z58	X59	Y59	Z59	X60	Y60	Z60	X61	Y61	Z61	X62	Y62	Z62	X63	Y63	Z63	X64	Y64	Z64	
370	6.15	0.0	1249.99432	7.654007714701862E-14	15.178969999999982	1339.33512	139.41946000000007	104.34049000000002	1339.63392	-93.4044599999999	-13.565460000000012	1401.96332	104.75881000000008	59.759730000000005	1402.20236	-86.7113699999999	-67.5285	1199.13879	28.983470000000068	-30.89577999999999	1199.25831	-66.75161999999993	-56.89127	1271.20903	-21.75253999999993	-20.49759	1365.03181	-7.828519999999919	25.69668	1460.28882	14.222820000000093	72.13	1544.55004	37.7083900000001	285.59176	1578.13501	135.7143500000001	187.34676	1669.68692	96.57173000000013	128.6627	1619.07043	66.69186000000012	208.08339	1505.34766	95.91437000000012	217.46567	1694.72625	113.24469000000013	336.44729	1887.92946	143.42336000000014	305.91007	1798.70818	209.45786000000015	334.9533	1791.1187	81.09396000000015	270.71159	1803.24992	133.50324000000015	160.09631999999996	1644.52807	273.10198000000014	286.18936	1651.22116	-57.72789999999986	244.65633999999997	1428.67592	342.06471000000016	232.10679999999996	1403.33779	296.10947000000016	399.97189	1431.60415	-66.51257999999987	360.05239	1403.99515	-43.08676999999987	335.8496999999999	1262.90242	427.4016100000001	366.74547999999993	1263.20122	396.1472700000001	221.58908999999997	1419.89124	334.8935400000001	543.03669	1283.51953	-66.33329999999984	545.5466	1285.7904	-22.529419999999853	377.74127	1420.60836	-77.56812999999987	500.12919999999997	1245.2733	489.55173000000013	419.33403999999996	1245.15378	488.17725000000013	371.04817999999995	1246.7673	440.3694700000001	697.15704	1249.2772	18.047440000000165	645.10631	1259.6754	-42.90748999999985	577.81685	1266.48801	-49.30177999999985	-37.34983000000002	1250.23336	145.33567000000008	254.39717999999996	1151.6298	302.5037700000001	289.05782999999997	1144.69767	245.37346000000008	281.64761999999996	1184.49765	272.92270000000013	45.238120000000016	1228.12226	-140.55488999999992	228.70050000000003	935.29957	-128.1846299999999	229.89569	932.67014	-61.07444999999991	259.77556	956.09596	-92.08974999999991	294.13739999999996	1102.62682	287.9223900000001	71.17383999999997	801.67681	223.85996000000006	100.63538999999999	797.01555	171.62995000000006	279.61579	903.62691	-99.97802999999992	209.57738000000003	532.75801	-143.90143999999995	216.92783	529.23219	-84.26121999999994	8.485879999999984	695.96184	129.67862000000002	147.78581999999997	609.25047	218.24254000000005	85.15761999999997	615.40572	280.03411000000006	132.30804999999998	600.64507	264.6758500000001	33.52520999999998	674.03002	157.22786000000002	177.66567999999998	569.80905	313.73859000000004	127.10895000000001	413.83615	-102.54769999999996	292.28485	366.32716	-30.238419999999945	302.44401	350.19203	-116.35219999999993	320.67072	350.78963	-67.94681999999993	166.84917	398.53765	-95.01796999999996	390.70913	331.60675	-56.05462999999993	
371	6.167	0.0	1249.99432	7.654007714701862E-14	15.477769999999982	1339.45464	139.29994000000008	104.63929000000002	1339.15584	-93.5239799999999	-13.087380000000012	1402.1426	104.57953000000009	60.178050000000006	1401.90356	-86.8906499999999	-67.70778	1199.37783	29.04323000000007	-31.015299999999993	1199.25831	-66.69185999999993	-56.83151	1271.32855	-21.81229999999993	-20.13903	1365.09157	-7.948039999999919	26.4138	1460.22906	14.163060000000092	73.20567	1544.25124	37.7083900000001	286.96623	1576.64102	135.47531000000012	189.07979	1668.67101	96.87053000000013	130.09694	1618.47283	66.87114000000011	209.0993	1504.33174	95.55581000000011	219.25846	1693.59081	113.54349000000013	338.77792	1886.31595	143.84168000000014	308.30046	1796.97515	209.81642000000014	336.86561	1789.6247	81.33300000000015	272.80318	1801.75593	134.04108000000014	161.76959999999997	1642.97432	273.2215000000001	287.56383	1650.44429	-57.668139999999866	246.26985999999997	1427.48073	341.9451900000002	233.72030999999998	1402.20236	295.9899500000002	401.46588	1430.94679	-66.33329999999987	361.54638	1403.27803	-42.96724999999987	337.88152999999994	1261.76699	426.9832900000001	368.8370699999999	1262.30483	395.7887100000001	223.14283999999998	1418.57653	334.7740200000001	544.70996	1283.04145	-66.63209999999984	547.27963	1285.31232	-22.768459999999855	379.11574	1419.89124	-77.44860999999987	501.9817499999999	1244.07811	489.4322100000001	421.18658999999997	1244.07811	487.8784500000001	373.0202499999999	1245.69162	440.01091000000014	699.00959	1249.45648	17.629120000000164	646.83934	1259.61564	-43.266049999999844	579.54988	1266.18921	-49.60057999999985	-36.99127000000002	1251.84687	145.3954300000001	257.56444999999997	1162.44631	302.8623200000001	292.04580999999996	1154.91659	245.67226000000008	284.03800999999993	1195.19465	272.3848600000001	44.521000000000015	1227.7637	-140.6744099999999	224.15876000000003	932.49086	-129.7981399999999	225.71251	929.80168	-62.68795999999991	255.65213	952.80917	-93.82277999999991	299.33649999999994	1114.27997	289.1175900000001	88.02608999999997	803.4696	233.60079000000005	117.18883999999997	798.80834	181.19151000000008	274.53621	899.50349	-101.95009999999992	195.11553000000004	531.32378	-151.78971999999993	201.9879	526.66252	-92.20926999999995	30.35793999999998	692.73482	141.75009000000003	173.42273999999998	614.80813	232.52512000000004	110.37622999999996	619.52915	294.13740000000007	158.24376999999998	606.62104	279.1377100000001	56.35342999999998	672.65555	169.89692000000002	204.79659999999998	579.25109	328.91757000000007	109.12127000000001	414.25446	-112.40805999999996	272.6239	360.94878	-40.39757999999994	282.60377	345.82957	-126.75038999999995	300.71097	345.17221	-78.22548999999994	148.32366	397.70102	-104.99784999999996	370.15178	323.77823	-66.45281999999995	
372	6.183	0.0	1249.99432	7.654007714701862E-14	15.776569999999982	1339.5144	139.2401800000001	104.87833000000002	1338.79728	-93.6434999999999	-12.609300000000012	1402.26212	104.46001000000008	60.65613000000001	1401.66452	-87.0699299999999	-67.8273	1199.61687	29.102990000000066	-31.19457999999999	1199.31807	-66.63209999999992	-56.77175	1271.50782	-21.81229999999993	-19.78047	1365.21109	-7.948039999999919	27.19068	1460.10954	14.163060000000092	74.46063	1543.89268	37.8876700000001	288.51999	1574.78847	135.29603000000012	191.05186	1667.53557	97.22908000000012	131.77021	1617.75571	67.16994000000011	210.23474	1503.07679	95.25701000000011	221.40981	1692.21634	113.96181000000013	341.58663	1884.34388	144.31975000000014	311.10917	1794.94332	210.23474000000013	339.13648	1787.83191	81.63179000000015	275.31309	1800.0229	134.57892000000015	163.80142999999998	1641.18153	273.4007800000001	289.11759	1649.36861	-57.60837999999986	248.24192999999997	1426.10625	342.0049500000002	235.57285999999996	1400.82789	296.1692300000002	403.25867	1430.16991	-65.97473999999987	363.27941	1402.4414	-42.66844999999987	340.33167999999995	1260.51203	426.74425000000014	371.3469799999999	1261.22915	395.5496700000001	225.05514999999997	1417.14229	334.8935400000001	546.62227	1282.50362	-66.81137999999984	549.31146	1284.71473	-23.007499999999855	380.84877	1419.11436	-77.09004999999988	504.31237999999996	1242.82315	489.4919700000001	423.51721999999995	1242.82315	487.7589400000001	375.4703999999999	1244.49643	439.83163000000013	701.2207	1249.2772	17.15104000000016	648.93093	1259.31684	-43.624599999999845	581.58172	1265.71113	-49.89937999999985	-36.692480000000025	1253.16159	145.3954300000001	259.7755599999999	1170.45412	303.04160000000013	294.01787999999993	1162.32679	245.7917800000001	285.65151999999995	1202.96341	271.7872600000001	43.98316000000001	1227.4649	-140.73416999999992	222.24644000000004	931.29567	-130.6945299999999	224.27828	928.66624	-63.58435999999991	254.15814	951.49446	-94.95820999999991	303.51967999999994	1123.42321	290.0737400000001	105.41616999999997	802.63297	243.16235000000006	134.45939999999996	797.97171	190.69331000000008	271.7275	897.1131	-103.26481999999992	180.77319000000003	532.51897	-159.73775999999995	187.22724	526.66252	-100.21706999999995	53.30567999999998	686.8186	153.94107000000002	199.71702999999997	618.39371	247.04673000000005	136.37170999999998	621.56098	308.3602200000001	184.83684999999997	610.6847	293.77884000000006	80.19755999999997	668.77116	182.62574000000004	232.58487999999997	586.96009	344.3953400000001	91.49215000000001	417.06317	-122.20864999999996	253.38127	358.43887	-50.55672999999995	263.1221	344.21606	-137.08882999999994	281.10978	342.42327	-88.56391999999995	130.27622	399.37429	-114.91796999999995	349.95299	319.05721	-76.97053999999994	
373	6.2	0.0	1249.99432	7.654007714701862E-14	15.836329999999982	1339.45464	139.29994000000008	105.11737000000001	1338.618	-93.5239799999999	-12.370260000000012	1402.26212	104.51977000000008	61.01469000000001	1401.60476	-86.9504099999999	-67.94682	1199.73639	28.983470000000068	-31.254339999999992	1199.37783	-66.69185999999993	-56.71199	1271.62734	-21.81229999999993	-19.54143	1365.3306	-7.888279999999919	27.78828	1459.99002	14.402100000000093	75.47654	1543.59389	38.2462300000001	289.89446	1573.05543	135.2362700000001	192.84466	1666.4599	97.76692000000013	133.14468	1617.0386	67.70778000000011	211.13113	1501.88159	95.13749000000011	223.26236	1690.84187	114.49965000000013	344.21606	1882.43157	144.91735000000014	313.91787	1792.97125	210.77258000000015	341.10855	1786.03912	81.93059000000015	277.64372	1798.28987	135.35579000000016	165.59421999999998	1639.56802	273.81909000000013	290.4323	1648.23318	-57.369339999999866	250.03471999999996	1424.97082	342.3635100000002	237.18637999999999	1399.57293	296.5875500000002	404.81243	1429.4528	-65.49666999999987	364.83317	1401.60476	-42.36964999999987	342.60254999999995	1259.43636	426.6844900000001	373.6178499999999	1260.39251	395.5496700000001	226.72841999999997	1415.82758	335.2521000000001	548.41506	1282.02554	-66.93089999999984	551.16401	1284.17689	-23.067259999999855	382.34277	1418.33749	-76.67173999999987	506.40396999999996	1241.68772	489.7907700000001	425.60880999999995	1241.80724	487.8784500000001	377.62174999999996	1243.48051	439.83163000000013	703.19277	1249.15769	16.85224000000016	650.84324	1259.0778	-43.86363999999984	583.43427	1265.29281	-50.01889999999985	-36.692480000000025	1253.69942	145.33567000000008	260.61218999999994	1174.57754	303.22088000000014	294.8545199999999	1166.21118	245.9710600000001	286.18935999999997	1207.02707	271.6079800000001	44.04292000000002	1227.4649	-140.73416999999992	223.50140000000002	932.01279	-130.8738099999999	225.59299	929.44312	-63.763629999999914	255.35334	952.33109	-95.19724999999991	306.38814999999994	1128.98086	291.14942000000013	122.14888999999997	798.98762	252.0665500000001	151.19211999999996	794.44588	199.53775000000007	271.60798	896.5155	-103.86240999999991	167.74557000000001	536.58264	-167.14796999999993	173.60202	529.47123	-107.68703999999995	75.35701999999999	678.63152	165.65398000000002	224.57706999999996	619.40963	260.61219000000006	160.99271999999996	621.20242	321.74640000000005	209.93593999999996	612.1787	307.52358000000004	102.96601999999997	662.55615	194.81673000000004	258.64011999999997	591.86039	358.79743000000013	75.11798000000002	422.97939	-131.47140999999996	235.15455	358.97671	-60.29756999999995	244.77586000000002	345.71005	-146.94917999999996	262.5245	342.72206	-98.42427999999995	113.36421000000001	404.09531	-124.35999999999996	330.6506	317.38394	-87.01016999999995	
